# xmcd CD database file
#
# Track frame offsets:
#	150
#	13637
#	27775
#	39397
#	49572
#	63165
#	76240
#	88812
#	107252
#	124290
#
# Disc length: 1901 seconds
#
# Revision: 0
# Processed by: cddbd v1.5.1PL0 Copyright (c) Steve Scherf et al.
# Submitted via: CDex 1.51
#
DISCID=6d076b0a
DTITLE=Stampeders - Carryin' On
DYEAR=1971
DGENRE=Country
TTITLE0=Devil You
TTITLE1=The Difference It Makes
TTITLE2=Stone Blind
TTITLE3=Monday Morning Choo Choo
TTITLE4=Carryin' On
TTITLE5=Stick By You
TTITLE6=Dead Man's Hand
TTITLE7=Giant In The Street
TTITLE8=Then Came The White Man
TTITLE9=Wild Eyes
EXTD=YEAR: 1971
EXTT0=
EXTT1=
EXTT2=
EXTT3=
EXTT4=
EXTT5=
EXTT6=
EXTT7=
EXTT8=
EXTT9=
PLAYORDER=
